<svg width="25" height="28" viewBox="0 0 25 28" fill="none" xmlns="http://www.w3.org/2000/svg">
<path d="M20.8947 19.9175C22.6639 20.6692 23.7368 21.6554 23.7368 22.7368C23.7368 25.0915 18.6466 27 12.3684 27C6.09021 27 1 25.0915 1 22.7368C1 21.6568 2.07289 20.6678 3.84211 19.9175" stroke="#E83C53" stroke-width="2" stroke-linecap="round" stroke-linejoin="round"/>
<path fill-rule="evenodd" clip-rule="evenodd" d="M11.3197 22.275L12.3684 21.3158L11.3197 22.275ZM13.4172 22.275L13.4243 22.2679L13.4413 22.248L13.5053 22.1769L13.7412 21.9126C14.922 20.5678 16.0355 19.1654 17.0778 17.7106C17.9901 16.4316 18.9252 14.9822 19.6371 13.5426C20.3334 12.1358 20.8947 10.5883 20.8947 9.15726C20.8947 4.07984 17.1744 0 12.3684 0C7.56242 0 3.8421 4.07842 3.8421 9.15726C3.8421 10.5883 4.40342 12.1358 5.09973 13.5426C5.81168 14.9822 6.74816 16.4316 7.65763 17.7106C8.76952 19.2612 9.9625 20.7521 11.2316 22.1769L11.2955 22.248L11.3126 22.2679L11.3197 22.275C11.4528 22.4206 11.6148 22.5369 11.7954 22.6165C11.976 22.696 12.1711 22.7371 12.3684 22.7371C12.5657 22.7371 12.7609 22.696 12.9414 22.6165C13.122 22.5369 13.284 22.4206 13.4172 22.275V22.275ZM12.3684 21.3158L13.4172 22.2736L12.3684 21.3158ZM12.3684 5.68421C11.6146 5.68421 10.8917 5.98365 10.3587 6.51664C9.82575 7.04964 9.52631 7.77254 9.52631 8.52632C9.52631 9.28009 9.82575 10.003 10.3587 10.536C10.8917 11.069 11.6146 11.3684 12.3684 11.3684C13.1222 11.3684 13.8451 11.069 14.3781 10.536C14.9111 10.003 15.2105 9.28009 15.2105 8.52632C15.2105 7.77254 14.9111 7.04964 14.3781 6.51664C13.8451 5.98365 13.1222 5.68421 12.3684 5.68421V5.68421Z" fill="#E83C53"/>
</svg>
