<svg width="47" height="42" viewBox="0 0 47 42" fill="none" xmlns="http://www.w3.org/2000/svg">
<g clip-path="url(#clip0_9_9192)">
<path d="M24.6477 16.6603C24.2765 18.1365 23.6702 19.8316 22.8288 21.7457C22.1847 23.206 21.4217 24.4511 20.5398 25.481C19.658 26.5109 18.7506 27.2976 17.8179 27.8411C16.8857 28.3848 15.9865 28.6727 15.1205 28.7049C14.2545 28.7371 13.5204 28.4897 12.9182 27.9627C12.316 27.4353 11.9036 26.6198 11.6809 25.516C11.4583 24.4123 11.5201 22.9929 11.8665 21.2577C12.0522 21.175 12.2421 21.102 12.4355 21.0389C12.6064 20.9787 12.786 20.9458 12.9675 20.9414C13.1244 20.9414 13.2394 20.986 13.3125 21.0753C13.3857 21.1645 13.3898 21.3064 13.325 21.501C12.8964 22.8476 12.7232 23.9994 12.8054 24.9563C12.8875 25.9133 13.1349 26.6514 13.5475 27.1706C13.9602 27.6894 14.4963 27.9773 15.156 28.0344C15.8157 28.0915 16.5211 27.9009 17.2721 27.4625C18.0226 27.0244 18.769 26.3268 19.5113 25.3699C20.2536 24.413 20.9135 23.1801 21.4911 21.6713C22.1508 19.936 22.6375 18.4068 22.9512 17.0837C23.265 15.7607 23.3969 14.6698 23.347 13.8109C23.2975 12.9501 23.0583 12.3174 22.6293 11.913C22.2003 11.5087 21.5653 11.3463 20.7241 11.4261C20.6344 11.4432 20.5432 11.4514 20.4519 11.4505C20.3523 11.4508 20.253 11.4589 20.1548 11.475V11.4991C19.5443 12.8131 18.9751 14.1637 18.4472 15.5508C17.9194 16.938 17.4579 18.3054 17.063 19.6531C16.6797 20.9444 16.374 22.2568 16.1473 23.5835C15.9327 24.8571 15.8419 26.0373 15.8751 27.124C15.645 27.124 15.4471 26.7753 15.2813 26.0777C15.1154 25.3802 15.0706 24.3742 15.1467 23.0598C15.2212 21.7458 15.4729 20.1439 15.9016 18.2541C16.3304 16.3642 17.0319 14.227 18.0063 11.8424C17.3838 11.9589 16.7682 12.1092 16.1625 12.2926C15.6104 12.4628 15.2021 12.6213 14.9376 12.7684C14.9376 12.5577 15.0986 12.3062 15.4207 12.014C15.7427 11.7217 16.1757 11.4379 16.7197 11.1624C17.3146 10.8666 17.9346 10.6224 18.5725 10.4324C19.2723 10.2203 19.9948 10.0896 20.7255 10.043C22.0283 10.0108 23.0263 10.242 23.7196 10.7366C24.4129 11.2311 24.8336 11.9733 24.9817 12.9631C25.1301 13.9526 25.0188 15.1855 24.6477 16.6617V16.6603Z" fill="#FF5670"/>
<path d="M34.865 20.5377C34.7673 20.73 34.6408 20.8546 34.4855 20.9115C34.3252 20.9676 34.1534 20.9839 33.9852 20.9591C33.7988 20.9331 33.6174 20.8803 33.4466 20.8024C33.2667 20.7222 33.1117 20.6499 32.9815 20.5856C33.1213 20.0545 33.2033 19.5102 33.2261 18.9619C33.242 18.457 33.1889 18.0118 33.0667 17.6264C32.9446 17.2411 32.7491 16.9281 32.4802 16.6875C32.2106 16.4469 31.8557 16.3026 31.4154 16.2546C30.828 16.2063 30.2529 16.3667 29.6903 16.7358C29.1277 17.1048 28.5974 17.6183 28.0994 18.2762C27.6014 18.9345 27.1567 19.6927 26.7655 20.5506C26.3725 21.4094 26.0522 22.2988 25.808 23.2097C25.5679 24.0956 25.4162 25.0024 25.355 25.9174C25.2977 26.8077 25.3552 27.614 25.5275 28.3362C25.6998 29.0584 25.9975 29.6604 26.4205 30.142C26.8444 30.6234 27.4319 30.9042 28.1829 30.9844C29.0312 31.0807 29.794 30.8561 30.4714 30.3105C31.1488 29.765 31.7486 28.9788 32.2708 27.9519C32.3522 27.9519 32.4949 27.9399 32.6989 27.9158C32.8979 27.892 33.0982 27.8798 33.2986 27.8795C33.4946 27.8795 33.6537 27.9036 33.7761 27.9519C33.8986 28.0001 33.9186 28.0878 33.8372 28.2166C33.1188 29.3237 32.2703 30.2143 31.2916 30.8882C30.3128 31.5622 29.2277 31.8511 28.0362 31.7548C27.155 31.6902 26.4165 31.3973 25.8208 30.876C25.225 30.3547 24.7681 29.6929 24.45 28.8904C24.1319 28.088 23.9442 27.1818 23.8869 26.1719C23.831 25.1455 23.8927 24.1161 24.0708 23.1033C24.2519 22.0626 24.5516 21.0453 24.9641 20.0708C25.3802 19.0823 25.8943 18.203 26.5064 17.4327C27.0924 16.6849 27.8196 16.0556 28.648 15.5794C29.4641 15.114 30.3698 14.8814 31.3651 14.8814C32.1483 14.8814 32.801 15.0378 33.3231 15.3507C33.8326 15.6508 34.2478 16.084 34.5228 16.6022C34.7988 17.1233 34.9619 17.7251 35.012 18.4077C35.0589 19.121 35.0095 19.8372 34.865 20.5377Z" fill="#874E48"/>
<path fill-rule="evenodd" clip-rule="evenodd" d="M28.1846 35.2801C35.0451 34.8723 41.9491 28.9537 44.4802 24.0952C48.2714 17.4232 46.9458 11.3156 45.8662 8.74016C45.741 8.44077 45.6119 8.14309 45.4908 7.84235C43.756 3.52936 39.8717 0.458071 35.9919 0.10194C29.4677 -0.566146 26.1531 2.19829 24.9227 4.5811C24.2451 5.89315 24.3016 6.67813 24.7874 7.15931C25.1559 7.30951 25.857 7.38869 26.3684 6.28802C26.5815 5.81624 26.8687 5.38047 27.2195 4.9967C29.7037 2.33082 33.173 2.76409 34.9923 3.02575C38.1452 3.87802 39.9749 5.81227 41.1856 7.65137C42.3086 9.35659 43.0629 11.2769 43.3613 13.288C43.6028 14.9191 43.5587 16.6046 43.0949 18.8229C42.271 22.705 40.4406 25.8854 39.1747 27.4503C37.637 29.5572 36.449 30.6949 34.0211 31.9475C32.7417 32.6074 30.8592 33.3261 28.9181 33.7363C27.4186 33.965 25.0134 33.9541 25.1528 34.161C25.6303 34.872 26.8152 35.1897 28.1846 35.2797V35.2801Z" fill="#FF5670"/>
<path fill-rule="evenodd" clip-rule="evenodd" d="M30.1837 11.6752C30.9848 12.7966 31.2533 13.7732 28.5189 11.4353C25.4399 9.02529 21.6408 6.50314 17.7744 6.11677C14.9711 5.83744 10.847 5.10954 6.58312 8.99402C4.06786 11.8485 4.42221 16.0048 5.68294 20.1574C7.26868 25.3845 9.84328 28.3603 14.3028 32.147C17.32 34.3184 20.3125 36.1123 24.3379 37.3904C24.6388 37.4858 24.9378 37.5863 25.235 37.6921C26.496 38.1417 28.8412 39.0174 30.7337 38.5145C30.9607 38.1132 30.8403 39.5047 25.717 39.1024C25.1994 39.0616 25.4951 39.4843 24.8606 39.4177C23.9811 39.3331 23.1807 38.5577 22.4482 38.1859C21.3786 37.6422 20.4004 37.3815 19.0838 36.5887C16.9491 35.3008 13.9736 33.9731 12.7232 33.0927C12.5852 32.9951 12.1077 34.0833 11.988 33.9915C11.772 33.8328 11.762 33.6252 11.4929 33.6469C11.2751 33.6649 10.9484 33.4274 10.7134 33.2429C6.68283 30.0741 3.16182 26.3116 1.77378 22.6558C0.26842 19.3018 -0.766318 14.771 0.728342 10.2028C1.73962 7.2273 4.32146 3.98746 10.1956 2.96222C16.0696 1.93699 20.1268 2.91737 23.9742 5.43033C26.2583 6.67271 28.4454 9.22646 30.1847 11.6752H30.1837Z" fill="#874E48"/>
<path fill-rule="evenodd" clip-rule="evenodd" d="M28.7125 39.1421C28.7125 39.1421 30.4549 40.3478 31.6124 39.8309C32.8545 39.2767 31.914 38.3942 31.156 38.3194C24.98 40.5938 11.7837 32.2876 11.7837 32.2876L11.3376 31.6287C11.3376 31.6287 11.1651 34.1148 11.8472 34.7112C12.9841 35.6807 13.0275 33.8168 13.0275 33.8168C13.0275 33.8168 13.0127 34.1135 12.973 34.3982C12.8598 35.2138 13.4416 35.8703 14.2669 36.0093C15.195 36.1656 15.5062 35.3572 15.5062 35.3572C15.5062 35.3572 15.9609 37.7431 17.9694 38.1532C19.296 38.3398 19.8642 37.4077 19.8642 37.4077C19.9403 37.7499 20.0581 38.0819 20.2151 38.3962C20.4429 38.8461 20.8424 39.1951 21.3334 39.3317C22.553 39.6716 22.3274 38.1532 22.3274 38.1532C22.3274 38.1532 22.8201 39.6447 23.654 39.8309C25.1318 40.3903 25.5489 38.8992 25.5489 38.8992C25.5489 38.8992 27.3638 40.5714 28.1266 40.2374C28.1266 40.2374 28.9495 40.1949 28.7132 39.1421" fill="#874E48"/>
<path fill-rule="evenodd" clip-rule="evenodd" d="M31.3999 38.4037C31.952 38.611 32.4312 39.7371 32.542 40.8188C32.6224 41.6068 33.3894 42.1655 34.1636 41.9555C34.3586 41.9058 34.5368 41.8062 34.6801 41.6668C34.8235 41.5274 34.9268 41.3531 34.9796 41.1617C35.0965 40.7614 35.002 40.3311 34.7557 39.9923C34.4534 39.5771 34.216 39.3263 33.6171 39.0487C33.3638 38.9311 32.8425 38.6915 32.3701 38.5423C31.7491 38.3463 30.8544 38.2423 31.2164 38.3779L31.3999 38.4037Z" fill="#874E48"/>
<path fill-rule="evenodd" clip-rule="evenodd" d="M28.5831 39.031C28.8174 39.1428 29.012 39.714 29.0071 40.1959C29.0039 40.2622 29.0157 40.3283 29.0416 40.3896C29.2214 40.7699 29.8597 40.815 30.0198 40.3498C30.0467 40.2651 30.0545 40.1755 30.0426 40.0874C30.0307 39.9994 29.9993 39.915 29.9508 39.8401C29.8397 39.6603 29.7113 39.5584 29.476 39.4231C29.2221 39.2774 28.3336 38.9134 28.579 39.0317L28.5831 39.031Z" fill="#874E48"/>
<path fill-rule="evenodd" clip-rule="evenodd" d="M25.313 38.7422C25.5245 38.9138 25.3751 39.5509 25.4247 40.0447C25.4817 40.6166 26.3794 40.9 26.5023 40.06C26.5519 39.7202 26.3463 39.5761 26.0882 39.3314C25.8767 39.1306 25.1011 38.5706 25.3123 38.7422H25.313Z" fill="#874E48"/>
<path fill-rule="evenodd" clip-rule="evenodd" d="M22.0013 38.0877C22.2363 38.349 22.2539 39.4636 22.0013 40.1042C21.8575 40.4688 22.0655 41.1461 22.4281 41.3058C22.6935 41.4227 23.0233 41.3867 23.26 41.0981C23.3375 41.0005 23.3938 40.8883 23.4256 40.7685C23.4573 40.6486 23.4638 40.5236 23.4446 40.4012C23.4008 40.0953 23.3156 39.8211 23.0827 39.5176C22.8367 39.1958 22.2546 37.6826 22.5061 37.9647L22.0013 38.0877Z" fill="#874E48"/>
<path fill-rule="evenodd" clip-rule="evenodd" d="M14.958 34.7554C15.1181 35.0952 14.7696 35.976 14.2907 36.516C13.8905 37.2514 14.9425 38.1471 15.6415 37.125C15.754 36.7124 15.7543 36.4321 15.5725 35.9485C15.4303 35.571 14.7982 34.4159 14.9587 34.7554H14.958Z" fill="#874E48"/>
<path fill-rule="evenodd" clip-rule="evenodd" d="M20.4156 36.8184C20.1503 37.0502 20.1009 37.8878 20.2745 38.5539C20.3732 38.9325 20.1679 39.3355 19.789 39.4514C19.513 39.536 19.1883 39.4612 18.9882 39.1455C18.923 39.039 18.8805 38.9205 18.8636 38.7972C18.8466 38.674 18.8554 38.5486 18.8895 38.4288C18.9703 38.1322 19.1031 37.9439 19.3702 37.6704C19.6531 37.3798 20.6999 36.5687 20.4156 36.8171V36.8184Z" fill="#874E48"/>
<path fill-rule="evenodd" clip-rule="evenodd" d="M12.5852 30.6388C12.5852 30.6388 21.0467 38.7072 31.156 38.3194V39.0082L27.2837 38.68L18.7119 36.5089L12.7008 32.2149L12.5852 30.6388Z" fill="#874E48"/>
</g>
<defs>
<clipPath id="clip0_9_9192">
<rect width="47" height="42" fill="white"/>
</clipPath>
</defs>
</svg>
