<svg width="29" height="29" viewBox="0 0 29 29" fill="none" xmlns="http://www.w3.org/2000/svg">
<path d="M24.5956 5.84894C23.6382 5.13663 22.3209 4.67036 21.3304 4.34683C19.4178 3.72197 16.5499 3.39391 14.5154 3.32775V3.32413C14.5041 3.32413 14.4914 3.32594 14.4805 3.32594C14.4687 3.32594 14.4556 3.32413 14.4447 3.32413V3.32775C12.4097 3.39391 9.5419 3.72197 7.62972 4.34683C6.641 4.67036 5.32105 5.13663 4.36359 5.84894C2.23481 5.96041 0.197108 8.67463 0.017217 9.90667C-0.173549 11.2244 1.51751 12.5275 3.79945 12.8198C6.07867 13.1098 8.08103 12.2761 8.27361 10.9588C8.35019 10.4318 8.17301 9.55958 7.79148 8.68414C9.89262 7.80463 12.4383 7.36238 14.4814 7.27764C16.5227 7.36238 19.0693 7.80463 21.1695 8.68414C20.7889 9.56049 20.6117 10.4332 20.6883 10.9588C20.8814 12.2765 22.8833 13.1098 25.1625 12.8198C27.4462 12.5275 29.1355 11.2244 28.9447 9.90667C28.7653 8.67463 26.7267 5.95996 24.597 5.84894" fill="#E83C53"/>
<path d="M26.6474 25.3696V18.27L19.705 9.93749V7.16074H17.3909V8.8296H11.5003V7.16074H9.18666V9.93749L2.24342 18.27V25.3696H26.6474Z" fill="#E83C53"/>
<path d="M12.136 14.3219C12.136 14.8031 11.7989 15.1915 11.3866 15.1915H10.1038C9.69008 15.1915 9.35522 14.8036 9.35522 14.3219V13.2489C9.35522 12.7704 9.69053 12.3825 10.1038 12.3825H11.3866C11.7994 12.3825 12.136 12.7704 12.136 13.2489V14.3219V14.3219ZM15.8326 14.3219C15.8326 14.8031 15.4973 15.1915 15.085 15.1915H13.8022C13.3885 15.1915 13.0527 14.8036 13.0527 14.3219V13.2489C13.0527 12.7704 13.3889 12.3825 13.8022 12.3825H15.085C15.4973 12.3825 15.8326 12.7704 15.8326 13.2489V14.3219ZM19.4463 14.3219C19.4463 14.8031 19.1105 15.1915 18.6977 15.1915H17.4149C17.0008 15.1915 16.6664 14.8036 16.6664 14.3219V13.2489C16.6664 12.7704 17.0008 12.3825 17.4149 12.3825H18.6977C19.1105 12.3825 19.4463 12.7704 19.4463 13.2489V14.3219ZM12.1786 17.9922C12.1786 18.4721 11.8415 18.8595 11.4301 18.8595H10.1464C9.73267 18.8595 9.39736 18.4721 9.39736 17.9922V16.9174C9.39736 16.4403 9.73267 16.0519 10.1464 16.0519H11.4301C11.842 16.0519 12.1786 16.4403 12.1786 16.9174V17.9922ZM15.8775 17.9922C15.8775 18.4721 15.5422 18.8595 15.1294 18.8595H13.8457C13.432 18.8595 13.0971 18.4721 13.0971 17.9922V16.9174C13.0971 16.4403 13.4324 16.0519 13.8457 16.0519H15.1294C15.5422 16.0519 15.8775 16.4403 15.8775 16.9174V17.9922ZM19.4889 17.9922C19.4889 18.4721 19.1531 18.8595 18.7403 18.8595H17.4575C17.0438 18.8595 16.7081 18.4721 16.7081 17.9922V16.9174C16.7081 16.4403 17.0438 16.0519 17.4575 16.0519H18.7403C19.1531 16.0519 19.4889 16.4403 19.4889 16.9174V17.9922ZM12.2217 21.7681C12.2217 22.2471 11.8846 22.6354 11.4718 22.6354H10.189C9.77526 22.6354 9.4404 22.2471 9.4404 21.7681V20.6942C9.4404 20.2162 9.77572 19.8278 10.189 19.8278H11.4718C11.8846 19.8278 12.2217 20.2162 12.2217 20.6942V21.7681ZM15.9183 21.7681C15.9183 22.2471 15.5834 22.6354 15.1706 22.6354H13.8869C13.4732 22.6354 13.1379 22.2471 13.1379 21.7681V20.6942C13.1379 20.2162 13.4732 19.8278 13.8869 19.8278H15.1706C15.5834 19.8278 15.9183 20.2162 15.9183 20.6942V21.7681ZM19.5297 21.7681C19.5297 22.2471 19.1935 22.6354 18.7811 22.6354H17.4983C17.0837 22.6354 16.7498 22.2471 16.7498 21.7681V20.6942C16.7498 20.2162 17.0837 19.8278 17.4983 19.8278H18.7811C19.1935 19.8278 19.5297 20.2162 19.5297 20.6942V21.7681Z" fill="#E7E6E6"/>
</svg>
